<?xml version="1.0" encoding="utf-8"?>
<!-- Generator: Adobe Illustrator 21.1.0, SVG Export Plug-In . SVG Version: 6.00 Build 0)  -->
<svg version="1.1" id="Layer_1" xmlns="http://www.w3.org/2000/svg" xmlns:xlink="http://www.w3.org/1999/xlink" x="0px" y="0px"
	 viewBox="0 0 35 29" style="enable-background:new 0 0 35 29;" xml:space="preserve">
<g>
	<g>
		<path d="M34.3,11.6h-6.2L20.3,0.3c-0.2-0.3-0.7-0.4-1-0.2c-0.3,0.2-0.4,0.7-0.2,1l7.2,10.5H8.7l7.2-10.5c0.2-0.3,0.1-0.8-0.2-1
			c-0.3-0.2-0.8-0.1-1,0.2L6.9,11.6H0.7c-0.4,0-0.7,0.3-0.7,0.7C0,12.7,0.3,13,0.7,13h0.9L6.1,27c0.4,1.2,1.5,2,2.8,2h17.2
			c1.3,0,2.4-0.8,2.8-2L33.3,13h0.9c0.4,0,0.7-0.3,0.7-0.7C35,11.9,34.7,11.6,34.3,11.6z M27.5,26.5c-0.2,0.6-0.8,1-1.4,1H8.9
			c-0.6,0-1.2-0.4-1.4-1L3.2,13h28.6L27.5,26.5z"/>
	</g>
</g>
</svg>
