<?xml version="1.0" encoding="utf-8"?>
<!-- Generator: Adobe Illustrator 21.1.0, SVG Export Plug-In . SVG Version: 6.00 Build 0)  -->
<svg version="1.1" id="Layer_1" xmlns="http://www.w3.org/2000/svg" xmlns:xlink="http://www.w3.org/1999/xlink" x="0px" y="0px"
	 viewBox="0 0 24 20" style="enable-background:new 0 0 24 20;" xml:space="preserve">
<path d="M23.6,8h-4.3L14,0.2c-0.1-0.2-0.5-0.3-0.7-0.1c-0.2,0.1-0.3,0.5-0.1,0.7L18.1,8H6l4.9-7.2c0.1-0.2,0.1-0.6-0.1-0.7
	c-0.2-0.1-0.5-0.1-0.7,0.1L4.7,8H0.5C0.2,8,0,8.2,0,8.5C0,8.8,0.2,9,0.5,9h0.6l3.1,9.7c0.3,0.8,1,1.4,1.9,1.4h11.8
	c0.9,0,1.6-0.6,1.9-1.4l3-9.7h0.6C23.8,9,24,8.8,24,8.5C24.1,8.2,23.8,8,23.6,8z"/>
</svg>
