<?xml version="1.0" encoding="utf-8"?>
<!-- Generator: Adobe Illustrator 21.1.0, SVG Export Plug-In . SVG Version: 6.00 Build 0)  -->
<svg version="1.1" id="Capa_1" xmlns="http://www.w3.org/2000/svg" xmlns:xlink="http://www.w3.org/1999/xlink" x="0px" y="0px"
	 viewBox="0 0 33 31" style="enable-background:new 0 0 33 31;" xml:space="preserve">
<style type="text/css">
	.st0{fill:#53509D;}
</style>
<g>
	<g>
		<path class="st0" d="M10,17.9c0.7,0,1.5-0.1,2.2-0.2V9.6c-0.7-0.1-1.4-0.2-2.2-0.2c-4.4,0-8,1.7-8,3.8V14C2,16.2,5.6,17.9,10,17.9
			z"/>
		<path class="st0" d="M10,22.1c0.7,0,1.5-0.1,2.2-0.2v-2.4c-0.7,0.1-1.4,0.2-2.2,0.2c-3.8,0-7-1.3-7.8-3.1C2.1,17,2,17.2,2,17.5
			v0.8C2,20.5,5.6,22.1,10,22.1z"/>
		<path class="st0" d="M12.2,24v-0.2C11.5,24,10.8,24,10,24c-3.8,0-7-1.3-7.8-3.1C2.1,21.2,2,21.5,2,21.7v0.8c0,2.1,3.6,3.8,8,3.8
			c0.9,0,1.7-0.1,2.5-0.2c-0.2-0.4-0.3-0.8-0.3-1.3V24L12.2,24z"/>
		<path class="st0" d="M21.4,3c-4.4,0-8,1.7-8,3.8v0.8c0,2.1,3.6,3.8,8,3.8s8-1.7,8-3.8V6.8C29.3,4.7,25.8,3,21.4,3z"/>
		<path class="st0" d="M21.4,13.3c-3.8,0-7-1.3-7.8-3.1c-0.1,0.2-0.2,0.5-0.2,0.7v0.8c0,2.1,3.6,3.8,8,3.8s8-1.7,8-3.8V11
			c0-0.2-0.1-0.5-0.2-0.7C28.4,12,25.2,13.3,21.4,13.3z"/>
		<path class="st0" d="M21.4,17.6c-3.8,0-7-1.3-7.8-3.1c-0.1,0.2-0.2,0.5-0.2,0.7V16c0,2.1,3.6,3.8,8,3.8s8-1.7,8-3.8v-0.8
			c0-0.2-0.1-0.5-0.2-0.7C28.4,16.3,25.2,17.6,21.4,17.6z"/>
		<path class="st0" d="M21.4,22.1c-3.8,0-7-1.3-7.8-3.1c-0.1,0.2-0.2,0.5-0.2,0.7v0.8c0,2.1,3.6,3.8,8,3.8s8-1.7,8-3.8v-0.8
			c0-0.2-0.1-0.5-0.2-0.7C28.4,20.7,25.2,22.1,21.4,22.1z"/>
		<path class="st0" d="M21.4,26.3c-3.8,0-7-1.3-7.8-3.1c-0.1,0.2-0.2,0.5-0.2,0.7v0.8c0,2.1,3.6,3.8,8,3.8s8-1.7,8-3.8V24
			c0-0.2-0.1-0.5-0.2-0.7C28.4,25,25.2,26.3,21.4,26.3z"/>
	</g>
</g>
</svg>
