<?xml version="1.0" encoding="utf-8"?>
<!-- Generator: Adobe Illustrator 21.1.0, SVG Export Plug-In . SVG Version: 6.00 Build 0)  -->
<svg version="1.1" id="Capa_1" xmlns="http://www.w3.org/2000/svg" xmlns:xlink="http://www.w3.org/1999/xlink" x="0px" y="0px"
	 viewBox="0 0 512 512" style="enable-background:new 0 0 512 512;" xml:space="preserve">
<style type="text/css">
	.st0{fill:#53509D;}
	.st1{fill:#6C6CC1;}
</style>
<path class="st0" d="M80,240H16c-8.8,0-16,7.2-16,16v224c0,8.8,7.2,16,16,16h64c8.8,0,16-7.2,16-16V256C96,247.2,88.8,240,80,240z"
	/>
<path class="st1" d="M501.9,274.5c-16.3-21-46.5-24.7-67.3-8.4l-118,91.8c-8.4,6.6-18.8,10.1-29.5,10.1H176c44.2,0,80-35.8,80-80
	c0-8.8-7.2-16-16-16H96v96v96h213c17.8,0,35.1-5.9,49.1-16.9l135.4-105.3C514.4,325.6,518.1,295.5,501.9,274.5z"/>
<g>
	<path class="st0" d="M272,112c26.5,0,48-21.5,48-48s-21.5-48-48-48s-48,21.5-48,48S245.5,112,272,112z M272,48c8.8,0,16,7.2,16,16
		s-7.2,16-16,16s-16-7.2-16-16S263.2,48,272,48z"/>
	<path class="st0" d="M368,144c-26.5,0-48,21.5-48,48s21.5,48,48,48s48-21.5,48-48S394.5,144,368,144z M368,208c-8.8,0-16-7.2-16-16
		s7.2-16,16-16s16,7.2,16,16S376.8,208,368,208z"/>
	<path class="st0" d="M410.2,19.7c-6.8-5.6-16.8-4.7-22.5,2l-160,192c-5.7,6.8-4.7,16.9,2,22.5c3,2.5,6.6,3.7,10.2,3.7
		c4.6,0,9.2-2,12.3-5.8l160-192C418,35.5,417,25.3,410.2,19.7z"/>
</g>
</svg>
