<?xml version="1.0" encoding="utf-8"?>
<!-- Generator: Adobe Illustrator 21.1.0, SVG Export Plug-In . SVG Version: 6.00 Build 0)  -->
<svg version="1.1" id="Capa_1" xmlns="http://www.w3.org/2000/svg" xmlns:xlink="http://www.w3.org/1999/xlink" x="0px" y="0px" width="25px" height="25px"
	 viewBox="0 0 32 30" style="enable-background:new 0 0 32 30;" xml:space="preserve">
<g>
	<path d="M31.9,8.9C31.5,3.8,27.8,0,23.3,0c-3,0-5.8,1.6-7.4,4.3C14.4,1.6,11.7,0,8.7,0C4.2,0,0.5,3.8,0.1,8.9
		c0,0.2-0.2,1.4,0.3,3.4c0.7,2.8,2.2,5.4,4.4,7.5L15.9,30l11.3-10.2c2.2-2,3.8-4.6,4.4-7.5C32.1,10.4,32,9.2,31.9,8.9z M30.5,12.1
		c-0.6,2.6-2,4.9-4.1,6.8l-10.5,9.5L5.6,18.9c-2-1.9-3.5-4.2-4.1-6.8c-0.4-1.9-0.3-2.9-0.3-2.9l0-0.1c0.4-4.5,3.5-7.8,7.4-7.8
		c2.9,0,5.4,1.8,6.6,4.7l0.6,1.4l0.6-1.4c1.2-2.8,3.9-4.7,6.8-4.7c3.9,0,7,3.3,7.4,7.9C30.7,9.1,30.9,10.2,30.5,12.1z"/>
</g>
</svg>
