<?xml version="1.0" encoding="utf-8"?>
<!-- Generator: Adobe Illustrator 21.1.0, SVG Export Plug-In . SVG Version: 6.00 Build 0)  -->
<svg version="1.1" id="Слой_1" xmlns="http://www.w3.org/2000/svg" xmlns:xlink="http://www.w3.org/1999/xlink" x="0px" y="0px"
	 viewBox="0 0 30 33.2" style="enable-background:new 0 0 30 33.2;" xml:space="preserve">
<style type="text/css">
	.st0{fill:#53509D;}
</style>
<g>
	<path class="st0" d="M10.8,11c3,0,5.5-2.5,5.5-5.5c0-3-2.5-5.5-5.5-5.5S5.2,2.5,5.2,5.5S7.7,11,10.8,11z"/>
	<path class="st0" d="M23.8,20.7c-3.4,0-6.2,2.8-6.2,6.2c0,3.4,2.8,6.2,6.2,6.2S30,30.4,30,27S27.2,20.7,23.8,20.7z M27.6,25.7
		l-4.1,4.1c-0.2,0.2-0.5,0.3-0.7,0.3c-0.3,0-0.5-0.1-0.7-0.3l-2-2c-0.4-0.4-0.4-1.1,0-1.5c0.4-0.4,1.1-0.4,1.5,0l1.3,1.3l3.3-3.3
		c0.4-0.4,1.1-0.4,1.5,0C28,24.6,28,25.3,27.6,25.7z"/>
	<path class="st0" d="M21.5,19.3v-1c0-2.1-1.4-4-3.3-4.6l0,0l-2.9-0.5c-0.2-0.1-0.5,0.1-0.6,0.3l-3.3,9.1c-0.2,0.5-0.9,0.5-1.1,0
		l-3.3-9.1c-0.1-0.2-0.3-0.3-0.5-0.3c0,0-3.1,0.5-3.1,0.5c-2,0.7-3.4,2.5-3.4,4.6v7.6C0,27.1,0.9,28,2.1,28h13.8
		c0-0.3-0.1-0.7-0.1-1C15.8,23.3,18.2,20.3,21.5,19.3L21.5,19.3z"/>
	<path class="st0" d="M12,12.7c-0.1-0.1-0.3-0.2-0.5-0.2H10c-0.2,0-0.4,0.1-0.5,0.2c-0.2,0.2-0.2,0.5-0.1,0.8l0.8,1.1l-0.4,3
		l0.7,1.9c0.1,0.2,0.3,0.2,0.4,0l0.7-1.9l-0.4-3l0.8-1.1C12.2,13.2,12.2,12.9,12,12.7z"/>
</g>
</svg>
