<?xml version="1.0" encoding="utf-8"?>
<!-- Generator: Adobe Illustrator 21.1.0, SVG Export Plug-In . SVG Version: 6.00 Build 0)  -->
<svg version="1.1" id="Capa_1" xmlns="http://www.w3.org/2000/svg" xmlns:xlink="http://www.w3.org/1999/xlink" x="0px" y="0px" width="25px" height="25px"
	 viewBox="0 0 32 22.5" style="enable-background:new 0 0 32 22.5;" xml:space="preserve">
<style type="text/css">
	.st0{fill:#53509D;}
</style>
<g>
	<path class="st0" d="M1.1,15V1.4C1.1,0.6,1.7,0,2.5,0h13.6c0.8,0,1.4,0.6,1.4,1.4V15c0,0.3-0.2,0.5-0.5,0.5H1.6
		C1.3,15.4,1.1,15.2,1.1,15z M12.1,19.6c0,1.6-1.3,2.8-2.8,2.8s-2.8-1.3-2.8-2.8c0-1.6,1.3-2.8,2.8-2.8S12.1,18.1,12.1,19.6z
		 M10.7,19.6c0-0.8-0.6-1.4-1.4-1.4c-0.8,0-1.4,0.6-1.4,1.4c0,0.8,0.6,1.4,1.4,1.4C10.1,21.1,10.7,20.4,10.7,19.6z M6.8,16.8H0.5
		C0.2,16.8,0,17,0,17.3v1.4c0,0.3,0.2,0.5,0.5,0.5h5.1C5.7,18.2,6.2,17.4,6.8,16.8z M27,19.6c0,1.6-1.3,2.8-2.8,2.8
		c-1.6,0-2.8-1.3-2.8-2.8c0-1.6,1.3-2.8,2.8-2.8C25.7,16.8,27,18.1,27,19.6z M25.6,19.6c0-0.8-0.6-1.4-1.4-1.4s-1.4,0.6-1.4,1.4
		c0,0.8,0.6,1.4,1.4,1.4S25.6,20.4,25.6,19.6z M32,17.3v1.4c0,0.3-0.2,0.5-0.5,0.5h-3.7c-0.3-1.8-1.8-3.2-3.7-3.2s-3.4,1.4-3.7,3.2
		H13c-0.1-0.9-0.6-1.7-1.3-2.3h7.1V3.7c0-0.5,0.4-0.9,0.9-0.9H24c1.2,0,2.3,0.6,3,1.6l2.8,4.1c0.4,0.6,0.6,1.3,0.6,2v6.2h1.1
		C31.8,16.8,32,17,32,17.3z M27.4,8.7l-2.2-3.2c-0.1-0.1-0.2-0.2-0.4-0.2h-3.5c-0.3,0-0.5,0.2-0.5,0.5v3.2c0,0.3,0.2,0.5,0.5,0.5H27
		C27.4,9.4,27.6,9,27.4,8.7z"/>
</g>
</svg>
